<svg xmlns="http://www.w3.org/2000/svg" width="127" height="36" viewBox="0 0 127 36" fill="none"><path d="M48.04 26H51.12C51.64 24.64 52.14 23.28 52.66 21.92C54.64 21.92 56.64 21.92 58.62 21.92L60.18 26H63.36L57.44 10.4H53.96L48.04 26ZM53.72 19.04C54.42 17.24 55.12 15.4 55.64 13.98H55.68C56.48 16.16 57.08 17.78 57.56 19.04H53.72ZM64.6306 26H67.6106V10.4H64.6306V26ZM82.1253 26.34C85.5253 26.34 88.4053 24.6 89.6653 20.72L86.9053 19.78C86.1253 22.22 84.3853 23.54 82.1653 23.54C79.8453 23.54 77.1653 22.12 77.1653 18.3C77.1653 14.98 79.2053 12.88 81.9453 12.88C84.1453 12.88 85.6053 14.24 86.3853 16.08L89.1453 14.98C88.0653 12 85.3453 10.08 81.9853 10.08C77.8653 10.08 74.0453 12.94 74.0453 18.16C74.0453 23.08 77.4453 26.34 82.1253 26.34ZM95.9064 26.34C99.3064 26.34 101.666 23.92 101.666 20.44C101.666 16.98 99.3064 14.52 95.9064 14.52C92.5064 14.52 90.1464 16.98 90.1464 20.44C90.1464 23.92 92.5064 26.34 95.9064 26.34ZM93.0464 20.44C93.0464 18.54 94.2264 17.2 95.9064 17.2C97.5864 17.2 98.7464 18.52 98.7464 20.44C98.7464 22.32 97.5864 23.66 95.9064 23.66C94.2264 23.66 93.0464 22.32 93.0464 20.44ZM103.298 30.4H106.098V24.56C106.718 25.48 107.818 26.34 109.498 26.34C112.138 26.34 114.558 24.12 114.558 20.38C114.558 17.16 112.738 14.52 109.698 14.52C108.258 14.52 107.078 15.12 106.098 16.5H106.058V14.84H103.298V30.4ZM106.038 20.44C106.038 18.54 107.238 17.2 108.858 17.2C110.478 17.2 111.658 18.54 111.658 20.44C111.658 22.3 110.498 23.66 108.858 23.66C107.238 23.66 106.038 22.34 106.038 20.44ZM117.484 30.4H120.464L126.244 14.84H123.244C122.344 17.4 121.444 19.92 120.524 22.74H120.484C119.544 19.92 118.684 17.4 117.744 14.84H114.664L118.984 26.48L117.484 30.4Z" fill="#272657"></path><g clip-path="url(#clip0_121_161)"><path d="M3.93053 24.3037C4.31188 25.149 4.76719 25.9589 5.29114 26.724C5.27995 26.0737 5.41767 25.4295 5.69378 24.8406C5.96989 24.2517 6.37707 23.7338 6.88415 23.3265C7.39123 22.9192 7.98477 22.6333 8.61934 22.4907C9.25392 22.3481 9.91271 22.3525 10.5453 22.5037C10.1127 21.79 9.77597 21.0225 9.54376 20.2209C9.43022 19.8117 9.34205 19.3958 9.27976 18.9757C9.08241 17.6439 9.17108 16.2853 9.53987 14.9905C9.90866 13.6956 10.5491 12.4942 11.4185 11.4663C12.288 10.4383 13.3665 9.6074 14.5822 9.02886C15.7979 8.45033 17.1229 8.13746 18.469 8.11109H18.7275C20.4397 8.11304 22.1187 8.58426 23.5819 9.47355C23.434 8.84407 23.4306 8.18927 23.5719 7.55829C23.7132 6.9273 23.9956 6.33651 24.3979 5.83024C24.8001 5.32398 25.3118 4.91539 25.8946 4.63512C26.4773 4.35486 27.1159 4.21021 27.7625 4.21201H27.7985C26.3762 3.23399 24.8025 2.49675 23.1407 2.02986L23.1204 2.02524C23.0891 2.02074 23.0583 2.01395 23.0281 2.00494C18.967 0.866867 14.622 1.35972 10.919 3.37848C7.21595 5.39724 4.44769 8.78229 3.20407 12.8123C3.20278 12.8237 3.19999 12.8349 3.19576 12.8456C3.19576 12.8566 3.19022 12.8714 3.18653 12.8843C2.04001 16.655 2.30387 20.714 3.93053 24.3037Z" fill="url(#paint0_linear_121_161)"></path><path d="M31.3311 30.2569C34.0314 27.5518 35.6896 23.9799 36.0131 20.1714C36.3367 16.3629 35.3049 12.5625 33.0997 9.44058C33.0857 9.42508 33.073 9.40841 33.0618 9.39073C33.0543 9.3819 33.0472 9.37266 33.0406 9.36304C32.9197 9.19135 32.7941 9.01689 32.6575 8.84796C32.2482 8.31723 31.8051 7.81342 31.3311 7.33966C30.6995 6.72706 29.8524 6.38744 28.9726 6.39414C28.0927 6.40084 27.2509 6.75332 26.6287 7.37546C26.0066 7.9976 25.6541 8.83948 25.6474 9.7193C25.6407 10.5991 25.9803 11.4463 26.5929 12.0778C27.6786 13.1552 28.484 14.4822 28.9385 15.9427C28.9505 15.9726 28.9597 16.0035 28.9661 16.035C29.4584 17.6677 29.5058 19.4022 29.1037 21.0593C29.0957 21.0891 29.0852 21.1181 29.0723 21.1461C28.5685 23.1366 27.4311 24.9093 25.8316 26.1967C24.2322 27.4842 22.2574 28.2165 20.2052 28.2833H20.1877C18.1092 28.3533 16.0655 27.7369 14.3723 26.5295C14.3485 26.5169 14.3259 26.502 14.3049 26.4852L14.2975 26.4806C14.2644 26.457 14.2335 26.4304 14.2052 26.4012L14.0068 26.2563C13.8047 26.1006 13.6112 25.9342 13.4271 25.7578C13.3477 25.6867 13.2508 25.599 13.1612 25.5067C12.5325 24.8782 11.6799 24.5251 10.7909 24.5252C9.90189 24.5253 9.04932 24.8785 8.42076 25.5072C7.7922 26.1359 7.43912 26.9885 7.43921 27.8775C7.4393 28.7665 7.79254 29.6191 8.42122 30.2477C8.46461 30.291 8.50799 30.3353 8.55599 30.375C10.8586 32.6305 13.7846 34.1437 16.956 34.719L16.9975 34.7283C17.9445 34.8976 18.9045 34.9828 19.8665 34.983C24.1645 34.9835 28.2876 33.2807 31.3329 30.2477L31.3311 30.2569Z" fill="url(#paint1_linear_121_161)"></path></g><defs><linearGradient id="paint0_linear_121_161" x1="15.1416" y1="1.40479" x2="15.1416" y2="26.724" gradientUnits="userSpaceOnUse"><stop stop-color="#5698D5"></stop><stop offset="1" stop-color="#AA9DF2"></stop></linearGradient><linearGradient id="paint1_linear_121_161" x1="21.7553" y1="6.39404" x2="21.7553" y2="34.983" gradientUnits="userSpaceOnUse"><stop stop-color="#5698D5"></stop><stop offset="1" stop-color="#AA9DF2"></stop></linearGradient><clipPath id="clip0_121_161"><rect width="36" height="36" fill="white"></rect></clipPath></defs></svg>